<svg width="397" height="80" viewBox="0 0 397 80" fill="none" xmlns="http://www.w3.org/2000/svg">
<path d="M13.5263 9.96194V63H0.97471V9.96194H13.5263ZM58.1432 22.3604L45.362 63H31.0502L17.9629 22.3604H31.1267L38.3209 53.8159L45.8212 22.3604H58.1432ZM92.9841 51.2138C92.9841 52.7444 93.1882 53.8669 93.5964 54.5813C94.0556 55.2956 94.7699 55.8313 95.7393 56.1885L93.2137 64.0715C90.7136 63.8674 88.6727 63.3316 87.091 62.4643C85.5093 61.5459 84.2848 60.1172 83.4174 58.1784C80.7642 62.2602 76.6824 64.3011 71.1719 64.3011C67.1411 64.3011 63.9267 63.1276 61.5286 60.7805C59.1306 58.4335 57.9315 55.3721 57.9315 51.5964C57.9315 47.1575 59.5643 43.7645 62.8297 41.4174C66.0952 39.0704 70.8148 37.8968 76.9885 37.8968H81.1214V36.1366C81.1214 33.7385 80.6111 32.1058 79.5907 31.2384C78.5702 30.32 76.7844 29.8608 74.2333 29.8608C72.9067 29.8608 71.2995 30.0649 69.4117 30.4731C67.5238 30.8302 65.5849 31.3404 63.5951 32.0037L60.8398 24.0442C63.391 23.0748 65.9931 22.3349 68.6463 21.8247C71.3505 21.3145 73.8506 21.0594 76.1466 21.0594C81.9632 21.0594 86.2236 22.2584 88.9278 24.6565C91.632 27.0545 92.9841 30.6516 92.9841 35.4478V51.2138ZM74.6925 55.6527C77.4477 55.6527 79.5907 54.3517 81.1214 51.7495V44.5553H78.1365C75.3813 44.5553 73.3149 45.04 71.9373 46.0095C70.6107 46.9789 69.9474 48.4841 69.9474 50.525C69.9474 52.1577 70.3556 53.4332 71.1719 54.3517C72.0393 55.219 73.2128 55.6527 74.6925 55.6527ZM126.418 21.0594C129.939 21.0594 132.694 22.1308 134.684 24.2738C136.674 26.4167 137.669 29.4271 137.669 33.3048V63H125.576V35.3712C125.576 33.3303 125.245 31.9272 124.581 31.1619C123.969 30.3455 123.025 29.9373 121.75 29.9373C119.3 29.9373 116.953 31.6976 114.708 35.2182V63H102.616V22.3604H113.178L114.02 27.1821C115.754 25.1412 117.617 23.6105 119.607 22.5901C121.647 21.5696 123.918 21.0594 126.418 21.0594ZM186.838 8.66086C190.155 8.66086 193.088 9.14557 195.64 10.115C198.242 11.0844 200.691 12.5386 202.987 14.4774L197.017 21.5951C195.435 20.3706 193.879 19.4522 192.349 18.8399C190.818 18.2276 189.185 17.9215 187.45 17.9215C183.879 17.9215 181.047 19.4266 178.955 22.437C176.914 25.4473 175.894 30.0904 175.894 36.3662C175.894 42.5399 176.914 47.132 178.955 50.1423C181.047 53.1016 183.93 54.5813 187.603 54.5813C189.542 54.5813 191.303 54.2241 192.884 53.5098C194.466 52.7444 196.175 51.673 198.012 50.2954L203.599 57.4896C201.609 59.4794 199.186 61.1122 196.328 62.3877C193.522 63.6633 190.41 64.3011 186.991 64.3011C182.093 64.3011 177.833 63.2296 174.21 61.0867C170.587 58.9437 167.756 55.7803 165.715 51.5964C163.725 47.3616 162.73 42.2848 162.73 36.3662C162.73 30.6006 163.75 25.6259 165.791 21.442C167.883 17.2582 170.74 14.0948 174.363 11.9518C178.037 9.75785 182.195 8.66086 186.838 8.66086ZM240.521 51.2138C240.521 52.7444 240.725 53.8669 241.134 54.5813C241.593 55.2956 242.307 55.8313 243.277 56.1885L240.751 64.0715C238.251 63.8674 236.21 63.3316 234.628 62.4643C233.047 61.5459 231.822 60.1172 230.955 58.1784C228.301 62.2602 224.22 64.3011 218.709 64.3011C214.678 64.3011 211.464 63.1276 209.066 60.7805C206.668 58.4335 205.469 55.3721 205.469 51.5964C205.469 47.1575 207.101 43.7645 210.367 41.4174C213.632 39.0704 218.352 37.8968 224.526 37.8968H228.659V36.1366C228.659 33.7385 228.148 32.1058 227.128 31.2384C226.107 30.32 224.322 29.8608 221.771 29.8608C220.444 29.8608 218.837 30.0649 216.949 30.4731C215.061 30.8302 213.122 31.3404 211.132 32.0037L208.377 24.0442C210.928 23.0748 213.53 22.3349 216.184 21.8247C218.888 21.3145 221.388 21.0594 223.684 21.0594C229.5 21.0594 233.761 22.2584 236.465 24.6565C239.169 27.0545 240.521 30.6516 240.521 35.4478V51.2138ZM222.23 55.6527C224.985 55.6527 227.128 54.3517 228.659 51.7495V44.5553H225.674C222.919 44.5553 220.852 45.04 219.474 46.0095C218.148 46.9789 217.485 48.4841 217.485 50.525C217.485 52.1577 217.893 53.4332 218.709 54.3517C219.577 55.219 220.75 55.6527 222.23 55.6527ZM273.113 21.0594C278.216 21.0594 282.017 22.9472 284.517 26.7229C287.017 30.4986 288.267 35.7794 288.267 42.5654C288.267 46.7493 287.604 50.4994 286.277 53.8159C285.002 57.0814 283.139 59.658 280.69 61.5459C278.241 63.3827 275.384 64.3011 272.119 64.3011C268.037 64.3011 264.746 62.898 262.246 60.0917V78.6895L250.153 79.9905V22.3604H260.791L261.404 26.876C262.985 24.8861 264.797 23.4319 266.838 22.5135C268.879 21.5441 270.97 21.0594 273.113 21.0594ZM268.445 55.4231C273.292 55.4231 275.716 51.1883 275.716 42.7185C275.716 37.9224 275.18 34.6059 274.108 32.7691C273.037 30.8812 271.43 29.9373 269.287 29.9373C267.909 29.9373 266.608 30.3455 265.384 31.1619C264.21 31.9782 263.164 33.1517 262.246 34.6824V51.826C263.878 54.2241 265.945 55.4231 268.445 55.4231ZM331.255 41.8766C331.255 43.5604 331.178 45.0145 331.025 46.2391H305.845C306.254 49.6576 307.223 52.0556 308.754 53.4333C310.284 54.8109 312.402 55.4997 315.106 55.4997C316.739 55.4997 318.321 55.219 319.851 54.6578C321.382 54.0455 323.04 53.1271 324.826 51.9026L329.801 58.6376C325.056 62.4132 319.775 64.3011 313.958 64.3011C307.376 64.3011 302.325 62.3622 298.804 58.4845C295.284 54.6068 293.524 49.4025 293.524 42.8716C293.524 38.7387 294.263 35.0396 295.743 31.7741C297.223 28.4577 299.391 25.8555 302.248 23.9677C305.106 22.0288 308.524 21.0594 312.504 21.0594C318.372 21.0594 322.964 22.8962 326.28 26.5698C329.597 30.2434 331.255 35.3457 331.255 41.8766ZM319.392 38.4326C319.29 32.2078 317.096 29.0954 312.81 29.0954C310.718 29.0954 309.085 29.8608 307.912 31.3915C306.789 32.9221 306.101 35.4478 305.845 38.9683H319.392V38.4326ZM348.839 64.3011C345.319 64.3011 342.563 63.3061 340.573 61.3163C338.635 59.2753 337.665 56.3926 337.665 52.6679V6.21177L349.757 4.91069V52.2087C349.757 53.8925 350.446 54.7343 351.824 54.7343C352.538 54.7343 353.202 54.6068 353.814 54.3517L356.186 62.9235C353.992 63.8419 351.543 64.3011 348.839 64.3011ZM371.56 64.3011C368.04 64.3011 365.284 63.3061 363.294 61.3163C361.356 59.2753 360.386 56.3926 360.386 52.6679V6.21177L372.478 4.91069V52.2087C372.478 53.8925 373.167 54.7343 374.545 54.7343C375.259 54.7343 375.923 54.6068 376.535 54.3517L378.907 62.9235C376.713 63.8419 374.264 64.3011 371.56 64.3011ZM395.582 22.3604V63H383.49V22.3604H395.582ZM389.459 0.930925C391.551 0.930925 393.261 1.59422 394.587 2.92081C395.965 4.19638 396.654 5.8291 396.654 7.81899C396.654 9.80887 395.965 11.4671 394.587 12.7937C393.261 14.0693 391.551 14.707 389.459 14.707C387.368 14.707 385.658 14.0693 384.332 12.7937C383.005 11.4671 382.342 9.80887 382.342 7.81899C382.342 5.8291 383.005 4.19638 384.332 2.92081C385.658 1.59422 387.368 0.930925 389.459 0.930925Z" fill="black"/>
</svg>
